<svg xmlns="http://www.w3.org/2000/svg" xmlns:xlink="http://www.w3.org/1999/xlink" width="1000" zoomAndPan="magnify" viewBox="0 0 750 149.999998" height="200" preserveAspectRatio="xMidYMid meet" version="1.0"><defs><g/></defs><rect x="-75" width="900" fill="#ffffff" y="-15" height="179.999997" fill-opacity="1"/><rect x="-75" width="900" fill="#ffffff" y="-15" height="179.999997" fill-opacity="1"/><rect x="-75" width="900" fill="#000000" y="-15" height="179.999997" fill-opacity="1"/><g fill="#ffffff" fill-opacity="1"><g transform="translate(270.896641, 76.031764)"><g><path d="M 21.714844 -31.628906 C 17.992188 -31.628906 14.726562 -30.253906 12.375 -28.019531 L 12.375 -42.054688 L 4.011719 -42.054688 L 4.011719 0 L 12.375 0 L 12.375 -16.214844 C 12.375 -21.257812 15.125 -24.292969 19.308594 -24.292969 C 23.035156 -24.292969 24.695312 -22 24.695312 -17.359375 L 24.695312 0 L 33.058594 0 L 33.058594 -18.792969 C 33.058594 -26.644531 28.707031 -31.628906 21.714844 -31.628906 Z M 21.714844 -31.628906 "/></g></g></g><g fill="#ffffff" fill-opacity="1"><g transform="translate(307.621519, 76.031764)"><g><path d="M 34.035156 -15.527344 C 34.035156 -24.464844 27.503906 -31.800781 17.992188 -31.800781 C 8.824219 -31.800781 1.949219 -24.753906 1.949219 -15.46875 C 1.949219 -6.1875 8.882812 0.917969 17.992188 0.917969 C 25.210938 0.917969 31.113281 -3.378906 33.347656 -10.140625 L 24.582031 -10.140625 C 23.320312 -7.90625 20.914062 -6.53125 17.992188 -6.53125 C 13.921875 -6.53125 11.171875 -8.882812 10.429688 -13.121094 L 33.863281 -13.121094 C 33.976562 -13.921875 34.035156 -14.726562 34.035156 -15.527344 Z M 17.992188 -24.636719 C 21.773438 -24.636719 24.464844 -22.574219 25.667969 -18.792969 L 10.65625 -18.792969 C 11.632812 -22.460938 14.265625 -24.636719 17.992188 -24.636719 Z M 17.992188 -24.636719 "/></g></g></g><g fill="#ffffff" fill-opacity="1"><g transform="translate(343.601585, 76.031764)"><g><path d="M 4.011719 0 L 12.375 0 L 12.375 -42.054688 L 4.011719 -42.054688 Z M 4.011719 0 "/></g></g></g><g fill="#ffffff" fill-opacity="1"><g transform="translate(359.987413, 76.031764)"><g><path d="M 20.855469 -31.800781 C 17.015625 -31.800781 13.578125 -30.425781 10.945312 -28.074219 L 9.511719 -30.941406 L 4.011719 -30.941406 L 4.011719 11.171875 L 12.375 11.171875 L 12.375 -1.660156 C 14.726562 0 17.648438 0.972656 20.855469 0.972656 C 30.195312 0.972656 37.070312 -6.074219 37.070312 -15.46875 C 37.070312 -24.808594 30.195312 -31.800781 20.855469 -31.800781 Z M 20.167969 -6.988281 C 15.296875 -6.988281 11.746094 -10.601562 11.746094 -15.46875 C 11.746094 -20.28125 15.296875 -23.949219 20.167969 -23.949219 C 25.039062 -23.949219 28.589844 -20.28125 28.589844 -15.46875 C 28.589844 -10.601562 25.039062 -6.988281 20.167969 -6.988281 Z M 20.167969 -6.988281 "/></g></g></g><g fill="#ffffff" fill-opacity="1"><g transform="translate(399.061309, 76.031764)"><g/></g></g><g fill="#7ed957" fill-opacity="1"><g transform="translate(412.75267, 76.031764)"><g><path d="M 18.105469 0.917969 C 26.871094 0.917969 32.660156 -4.699219 32.660156 -13.0625 L 32.660156 -30.941406 L 24.292969 -30.941406 L 24.292969 -13.980469 C 24.292969 -9.625 22 -6.988281 18.105469 -6.988281 C 14.265625 -6.988281 11.917969 -9.570312 11.917969 -13.980469 L 11.917969 -30.941406 L 3.550781 -30.941406 L 3.550781 -13.0625 C 3.550781 -4.699219 9.398438 0.917969 18.105469 0.917969 Z M 18.105469 0.917969 "/></g></g></g><g fill="#7ed957" fill-opacity="1"><g transform="translate(449.0192, 76.031764)"><g><path d="M 14.953125 0.917969 C 22.804688 0.917969 27.960938 -3.207031 27.960938 -9.511719 C 27.960938 -17.074219 21.484375 -18.105469 16.445312 -19.023438 C 13.234375 -19.59375 10.601562 -20.109375 10.601562 -22.171875 C 10.601562 -23.949219 12.148438 -25.097656 14.726562 -25.097656 C 17.648438 -25.097656 19.367188 -23.894531 19.421875 -21.429688 L 27.386719 -21.429688 C 27.332031 -27.617188 22.402344 -31.800781 14.953125 -31.800781 C 7.507812 -31.800781 2.519531 -27.730469 2.519531 -21.886719 C 2.519531 -14.609375 8.824219 -13.292969 13.75 -12.433594 C 17.015625 -11.917969 19.710938 -11.289062 19.710938 -9.167969 C 19.710938 -7.105469 17.589844 -6.015625 15.296875 -6.015625 C 12.320312 -6.015625 10.199219 -7.390625 10.140625 -10.140625 L 2.003906 -10.140625 C 2.003906 -3.550781 7.21875 0.917969 14.953125 0.917969 Z M 14.953125 0.917969 "/></g></g></g><g fill="#7ed957" fill-opacity="1"><g transform="translate(232.733713, 117.471088)"><g><path d="M 3.96875 0 L 0.421875 -12.15625 L 3.53125 -12.15625 L 5.640625 -3.40625 L 8.078125 -12.15625 L 11.5625 -12.15625 L 14.015625 -3.40625 L 16.140625 -12.15625 L 19.25 -12.15625 L 15.6875 0 L 12.421875 0 L 9.828125 -9.09375 L 7.234375 0 Z M 3.96875 0 "/></g></g></g><g fill="#7ed957" fill-opacity="1"><g transform="translate(252.387795, 117.471088)"><g><path d="M 3.28125 -14.03125 C 2.707031 -14.03125 2.238281 -14.203125 1.875 -14.546875 C 1.507812 -14.890625 1.328125 -15.320312 1.328125 -15.84375 C 1.328125 -16.375 1.507812 -16.804688 1.875 -17.140625 C 2.238281 -17.472656 2.707031 -17.640625 3.28125 -17.640625 C 3.851562 -17.640625 4.320312 -17.472656 4.6875 -17.140625 C 5.0625 -16.804688 5.25 -16.375 5.25 -15.84375 C 5.25 -15.320312 5.0625 -14.890625 4.6875 -14.546875 C 4.320312 -14.203125 3.851562 -14.03125 3.28125 -14.03125 Z M 1.71875 0 L 1.71875 -12.15625 L 4.84375 -12.15625 L 4.84375 0 Z M 1.71875 0 "/></g></g></g><g fill="#7ed957" fill-opacity="1"><g transform="translate(258.930985, 117.471088)"><g><path d="M 6.609375 0.296875 C 5.535156 0.296875 4.585938 0.117188 3.765625 -0.234375 C 2.953125 -0.585938 2.300781 -1.070312 1.8125 -1.6875 C 1.320312 -2.3125 1.03125 -3.03125 0.9375 -3.84375 L 4.09375 -3.84375 C 4.1875 -3.375 4.445312 -2.96875 4.875 -2.625 C 5.3125 -2.289062 5.875 -2.125 6.5625 -2.125 C 7.25 -2.125 7.75 -2.265625 8.0625 -2.546875 C 8.382812 -2.828125 8.546875 -3.144531 8.546875 -3.5 C 8.546875 -4.019531 8.316406 -4.375 7.859375 -4.5625 C 7.398438 -4.75 6.765625 -4.9375 5.953125 -5.125 C 5.429688 -5.238281 4.898438 -5.375 4.359375 -5.53125 C 3.816406 -5.695312 3.320312 -5.90625 2.875 -6.15625 C 2.425781 -6.414062 2.0625 -6.742188 1.78125 -7.140625 C 1.507812 -7.535156 1.375 -8.03125 1.375 -8.625 C 1.375 -9.695312 1.800781 -10.601562 2.65625 -11.34375 C 3.507812 -12.082031 4.710938 -12.453125 6.265625 -12.453125 C 7.703125 -12.453125 8.847656 -12.113281 9.703125 -11.4375 C 10.566406 -10.769531 11.082031 -9.847656 11.25 -8.671875 L 8.28125 -8.671875 C 8.101562 -9.566406 7.425781 -10.015625 6.25 -10.015625 C 5.65625 -10.015625 5.195312 -9.898438 4.875 -9.671875 C 4.5625 -9.441406 4.40625 -9.15625 4.40625 -8.8125 C 4.40625 -8.457031 4.640625 -8.171875 5.109375 -7.953125 C 5.585938 -7.742188 6.21875 -7.550781 7 -7.375 C 7.851562 -7.175781 8.632812 -6.957031 9.34375 -6.71875 C 10.050781 -6.488281 10.617188 -6.140625 11.046875 -5.671875 C 11.472656 -5.203125 11.6875 -4.535156 11.6875 -3.671875 C 11.707031 -2.921875 11.507812 -2.242188 11.09375 -1.640625 C 10.6875 -1.035156 10.097656 -0.5625 9.328125 -0.21875 C 8.566406 0.125 7.660156 0.296875 6.609375 0.296875 Z M 6.609375 0.296875 "/></g></g></g><g fill="#7ed957" fill-opacity="1"><g transform="translate(271.796814, 117.471088)"><g><path d="M 1.59375 0 L 1.59375 -17.640625 L 4.734375 -17.640625 L 4.734375 -10.296875 C 5.140625 -10.960938 5.6875 -11.488281 6.375 -11.875 C 7.070312 -12.257812 7.867188 -12.453125 8.765625 -12.453125 C 10.273438 -12.453125 11.441406 -11.976562 12.265625 -11.03125 C 13.085938 -10.082031 13.5 -8.691406 13.5 -6.859375 L 13.5 0 L 10.390625 0 L 10.390625 -6.5625 C 10.390625 -7.613281 10.179688 -8.414062 9.765625 -8.96875 C 9.347656 -9.519531 8.691406 -9.796875 7.796875 -9.796875 C 6.910156 -9.796875 6.175781 -9.484375 5.59375 -8.859375 C 5.019531 -8.242188 4.734375 -7.378906 4.734375 -6.265625 L 4.734375 0 Z M 1.59375 0 "/></g></g></g><g fill="#ffffff" fill-opacity="1"><g transform="translate(286.695868, 117.471088)"><g><path d="M 1.59375 0 L 1.59375 -17.640625 L 4.734375 -17.640625 L 4.734375 0 Z M 1.59375 0 "/></g></g></g><g fill="#ffffff" fill-opacity="1"><g transform="translate(293.043009, 117.471088)"><g><path d="M 3.28125 -14.03125 C 2.707031 -14.03125 2.238281 -14.203125 1.875 -14.546875 C 1.507812 -14.890625 1.328125 -15.320312 1.328125 -15.84375 C 1.328125 -16.375 1.507812 -16.804688 1.875 -17.140625 C 2.238281 -17.472656 2.707031 -17.640625 3.28125 -17.640625 C 3.851562 -17.640625 4.320312 -17.472656 4.6875 -17.140625 C 5.0625 -16.804688 5.25 -16.375 5.25 -15.84375 C 5.25 -15.320312 5.0625 -14.890625 4.6875 -14.546875 C 4.320312 -14.203125 3.851562 -14.03125 3.28125 -14.03125 Z M 1.71875 0 L 1.71875 -12.15625 L 4.84375 -12.15625 L 4.84375 0 Z M 1.71875 0 "/></g></g></g><g fill="#ffffff" fill-opacity="1"><g transform="translate(299.586199, 117.471088)"><g><path d="M 6.609375 0.296875 C 5.535156 0.296875 4.585938 0.117188 3.765625 -0.234375 C 2.953125 -0.585938 2.300781 -1.070312 1.8125 -1.6875 C 1.320312 -2.3125 1.03125 -3.03125 0.9375 -3.84375 L 4.09375 -3.84375 C 4.1875 -3.375 4.445312 -2.96875 4.875 -2.625 C 5.3125 -2.289062 5.875 -2.125 6.5625 -2.125 C 7.25 -2.125 7.75 -2.265625 8.0625 -2.546875 C 8.382812 -2.828125 8.546875 -3.144531 8.546875 -3.5 C 8.546875 -4.019531 8.316406 -4.375 7.859375 -4.5625 C 7.398438 -4.75 6.765625 -4.9375 5.953125 -5.125 C 5.429688 -5.238281 4.898438 -5.375 4.359375 -5.53125 C 3.816406 -5.695312 3.320312 -5.90625 2.875 -6.15625 C 2.425781 -6.414062 2.0625 -6.742188 1.78125 -7.140625 C 1.507812 -7.535156 1.375 -8.03125 1.375 -8.625 C 1.375 -9.695312 1.800781 -10.601562 2.65625 -11.34375 C 3.507812 -12.082031 4.710938 -12.453125 6.265625 -12.453125 C 7.703125 -12.453125 8.847656 -12.113281 9.703125 -11.4375 C 10.566406 -10.769531 11.082031 -9.847656 11.25 -8.671875 L 8.28125 -8.671875 C 8.101562 -9.566406 7.425781 -10.015625 6.25 -10.015625 C 5.65625 -10.015625 5.195312 -9.898438 4.875 -9.671875 C 4.5625 -9.441406 4.40625 -9.15625 4.40625 -8.8125 C 4.40625 -8.457031 4.640625 -8.171875 5.109375 -7.953125 C 5.585938 -7.742188 6.21875 -7.550781 7 -7.375 C 7.851562 -7.175781 8.632812 -6.957031 9.34375 -6.71875 C 10.050781 -6.488281 10.617188 -6.140625 11.046875 -5.671875 C 11.472656 -5.203125 11.6875 -4.535156 11.6875 -3.671875 C 11.707031 -2.921875 11.507812 -2.242188 11.09375 -1.640625 C 10.6875 -1.035156 10.097656 -0.5625 9.328125 -0.21875 C 8.566406 0.125 7.660156 0.296875 6.609375 0.296875 Z M 6.609375 0.296875 "/></g></g></g><g fill="#ffffff" fill-opacity="1"><g transform="translate(312.452027, 117.471088)"><g><path d="M 7 0 C 5.726562 0 4.707031 -0.304688 3.9375 -0.921875 C 3.175781 -1.546875 2.796875 -2.648438 2.796875 -4.234375 L 2.796875 -9.53125 L 0.703125 -9.53125 L 0.703125 -12.15625 L 2.796875 -12.15625 L 3.15625 -15.40625 L 5.921875 -15.40625 L 5.921875 -12.15625 L 9.21875 -12.15625 L 9.21875 -9.53125 L 5.921875 -9.53125 L 5.921875 -4.21875 C 5.921875 -3.625 6.046875 -3.21875 6.296875 -3 C 6.554688 -2.78125 7 -2.671875 7.625 -2.671875 L 9.140625 -2.671875 L 9.140625 0 Z M 7 0 "/></g></g></g><g fill="#ffffff" fill-opacity="1"><g transform="translate(322.769196, 117.471088)"><g><path d="M 6.609375 0.296875 C 5.535156 0.296875 4.585938 0.117188 3.765625 -0.234375 C 2.953125 -0.585938 2.300781 -1.070312 1.8125 -1.6875 C 1.320312 -2.3125 1.03125 -3.03125 0.9375 -3.84375 L 4.09375 -3.84375 C 4.1875 -3.375 4.445312 -2.96875 4.875 -2.625 C 5.3125 -2.289062 5.875 -2.125 6.5625 -2.125 C 7.25 -2.125 7.75 -2.265625 8.0625 -2.546875 C 8.382812 -2.828125 8.546875 -3.144531 8.546875 -3.5 C 8.546875 -4.019531 8.316406 -4.375 7.859375 -4.5625 C 7.398438 -4.75 6.765625 -4.9375 5.953125 -5.125 C 5.429688 -5.238281 4.898438 -5.375 4.359375 -5.53125 C 3.816406 -5.695312 3.320312 -5.90625 2.875 -6.15625 C 2.425781 -6.414062 2.0625 -6.742188 1.78125 -7.140625 C 1.507812 -7.535156 1.375 -8.03125 1.375 -8.625 C 1.375 -9.695312 1.800781 -10.601562 2.65625 -11.34375 C 3.507812 -12.082031 4.710938 -12.453125 6.265625 -12.453125 C 7.703125 -12.453125 8.847656 -12.113281 9.703125 -11.4375 C 10.566406 -10.769531 11.082031 -9.847656 11.25 -8.671875 L 8.28125 -8.671875 C 8.101562 -9.566406 7.425781 -10.015625 6.25 -10.015625 C 5.65625 -10.015625 5.195312 -9.898438 4.875 -9.671875 C 4.5625 -9.441406 4.40625 -9.15625 4.40625 -8.8125 C 4.40625 -8.457031 4.640625 -8.171875 5.109375 -7.953125 C 5.585938 -7.742188 6.21875 -7.550781 7 -7.375 C 7.851562 -7.175781 8.632812 -6.957031 9.34375 -6.71875 C 10.050781 -6.488281 10.617188 -6.140625 11.046875 -5.671875 C 11.472656 -5.203125 11.6875 -4.535156 11.6875 -3.671875 C 11.707031 -2.921875 11.507812 -2.242188 11.09375 -1.640625 C 10.6875 -1.035156 10.097656 -0.5625 9.328125 -0.21875 C 8.566406 0.125 7.660156 0.296875 6.609375 0.296875 Z M 6.609375 0.296875 "/></g></g></g><g fill="#ffffff" fill-opacity="1"><g transform="translate(335.635024, 117.471088)"><g/></g></g><g fill="#ffffff" fill-opacity="1"><g transform="translate(341.467532, 117.471088)"><g><path d="M 2.15625 0 L 2.15625 -9.53125 L 0.484375 -9.53125 L 0.484375 -12.15625 L 2.15625 -12.15625 L 2.15625 -13.578125 C 2.15625 -15.046875 2.523438 -16.085938 3.265625 -16.703125 C 4.015625 -17.328125 5.023438 -17.640625 6.296875 -17.640625 L 7.640625 -17.640625 L 7.640625 -14.96875 L 6.78125 -14.96875 C 6.25 -14.96875 5.867188 -14.859375 5.640625 -14.640625 C 5.410156 -14.429688 5.296875 -14.078125 5.296875 -13.578125 L 5.296875 -12.15625 L 7.90625 -12.15625 L 7.90625 -9.53125 L 5.296875 -9.53125 L 5.296875 0 Z M 2.15625 0 "/></g></g></g><g fill="#ffffff" fill-opacity="1"><g transform="translate(350.265306, 117.471088)"><g><path d="M 7.421875 0.296875 C 6.242188 0.296875 5.1875 0.0234375 4.25 -0.515625 C 3.3125 -1.054688 2.566406 -1.800781 2.015625 -2.75 C 1.472656 -3.707031 1.203125 -4.816406 1.203125 -6.078125 C 1.203125 -7.335938 1.476562 -8.441406 2.03125 -9.390625 C 2.582031 -10.347656 3.328125 -11.097656 4.265625 -11.640625 C 5.210938 -12.179688 6.273438 -12.453125 7.453125 -12.453125 C 8.609375 -12.453125 9.65625 -12.179688 10.59375 -11.640625 C 11.53125 -11.097656 12.269531 -10.347656 12.8125 -9.390625 C 13.363281 -8.441406 13.640625 -7.335938 13.640625 -6.078125 C 13.640625 -4.816406 13.363281 -3.707031 12.8125 -2.75 C 12.269531 -1.800781 11.523438 -1.054688 10.578125 -0.515625 C 9.628906 0.0234375 8.578125 0.296875 7.421875 0.296875 Z M 7.421875 -2.421875 C 8.242188 -2.421875 8.957031 -2.726562 9.5625 -3.34375 C 10.164062 -3.957031 10.46875 -4.867188 10.46875 -6.078125 C 10.46875 -7.285156 10.164062 -8.191406 9.5625 -8.796875 C 8.957031 -9.410156 8.253906 -9.71875 7.453125 -9.71875 C 6.617188 -9.71875 5.898438 -9.410156 5.296875 -8.796875 C 4.703125 -8.191406 4.40625 -7.285156 4.40625 -6.078125 C 4.40625 -4.867188 4.703125 -3.957031 5.296875 -3.34375 C 5.898438 -2.726562 6.609375 -2.421875 7.421875 -2.421875 Z M 7.421875 -2.421875 "/></g></g></g><g fill="#ffffff" fill-opacity="1"><g transform="translate(365.116146, 117.471088)"><g><path d="M 1.59375 0 L 1.59375 -12.15625 L 4.390625 -12.15625 L 4.671875 -9.875 C 5.117188 -10.65625 5.722656 -11.28125 6.484375 -11.75 C 7.242188 -12.21875 8.132812 -12.453125 9.15625 -12.453125 L 9.15625 -9.140625 L 8.28125 -9.140625 C 7.59375 -9.140625 6.976562 -9.03125 6.4375 -8.8125 C 5.90625 -8.601562 5.488281 -8.238281 5.1875 -7.71875 C 4.882812 -7.195312 4.734375 -6.46875 4.734375 -5.53125 L 4.734375 0 Z M 1.59375 0 "/></g></g></g><g fill="#ffffff" fill-opacity="1"><g transform="translate(374.820655, 117.471088)"><g/></g></g><g fill="#7ed957" fill-opacity="1"><g transform="translate(380.648796, 117.471088)"><g><path d="M 1.59375 0 L 1.59375 -12.15625 L 4.359375 -12.15625 L 4.609375 -10.09375 C 4.984375 -10.8125 5.523438 -11.382812 6.234375 -11.8125 C 6.941406 -12.238281 7.78125 -12.453125 8.75 -12.453125 C 10.25 -12.453125 11.414062 -11.976562 12.25 -11.03125 C 13.082031 -10.082031 13.5 -8.691406 13.5 -6.859375 L 13.5 0 L 10.359375 0 L 10.359375 -6.5625 C 10.359375 -7.613281 10.144531 -8.414062 9.71875 -8.96875 C 9.300781 -9.519531 8.640625 -9.796875 7.734375 -9.796875 C 6.859375 -9.796875 6.140625 -9.484375 5.578125 -8.859375 C 5.015625 -8.242188 4.734375 -7.378906 4.734375 -6.265625 L 4.734375 0 Z M 1.59375 0 "/></g></g></g><g fill="#7ed957" fill-opacity="1"><g transform="translate(395.548651, 117.471088)"><g><path d="M 7.421875 0.296875 C 6.242188 0.296875 5.1875 0.0234375 4.25 -0.515625 C 3.3125 -1.054688 2.566406 -1.800781 2.015625 -2.75 C 1.472656 -3.707031 1.203125 -4.816406 1.203125 -6.078125 C 1.203125 -7.335938 1.476562 -8.441406 2.03125 -9.390625 C 2.582031 -10.347656 3.328125 -11.097656 4.265625 -11.640625 C 5.210938 -12.179688 6.273438 -12.453125 7.453125 -12.453125 C 8.609375 -12.453125 9.65625 -12.179688 10.59375 -11.640625 C 11.53125 -11.097656 12.269531 -10.347656 12.8125 -9.390625 C 13.363281 -8.441406 13.640625 -7.335938 13.640625 -6.078125 C 13.640625 -4.816406 13.363281 -3.707031 12.8125 -2.75 C 12.269531 -1.800781 11.523438 -1.054688 10.578125 -0.515625 C 9.628906 0.0234375 8.578125 0.296875 7.421875 0.296875 Z M 7.421875 -2.421875 C 8.242188 -2.421875 8.957031 -2.726562 9.5625 -3.34375 C 10.164062 -3.957031 10.46875 -4.867188 10.46875 -6.078125 C 10.46875 -7.285156 10.164062 -8.191406 9.5625 -8.796875 C 8.957031 -9.410156 8.253906 -9.71875 7.453125 -9.71875 C 6.617188 -9.71875 5.898438 -9.410156 5.296875 -8.796875 C 4.703125 -8.191406 4.40625 -7.285156 4.40625 -6.078125 C 4.40625 -4.867188 4.703125 -3.957031 5.296875 -3.34375 C 5.898438 -2.726562 6.609375 -2.421875 7.421875 -2.421875 Z M 7.421875 -2.421875 "/></g></g></g><g fill="#7ed957" fill-opacity="1"><g transform="translate(410.399491, 117.471088)"><g><path d="M 1.59375 0 L 1.59375 -12.15625 L 4.359375 -12.15625 L 4.609375 -10.09375 C 4.984375 -10.8125 5.523438 -11.382812 6.234375 -11.8125 C 6.941406 -12.238281 7.78125 -12.453125 8.75 -12.453125 C 10.25 -12.453125 11.414062 -11.976562 12.25 -11.03125 C 13.082031 -10.082031 13.5 -8.691406 13.5 -6.859375 L 13.5 0 L 10.359375 0 L 10.359375 -6.5625 C 10.359375 -7.613281 10.144531 -8.414062 9.71875 -8.96875 C 9.300781 -9.519531 8.640625 -9.796875 7.734375 -9.796875 C 6.859375 -9.796875 6.140625 -9.484375 5.578125 -8.859375 C 5.015625 -8.242188 4.734375 -7.378906 4.734375 -6.265625 L 4.734375 0 Z M 1.59375 0 "/></g></g></g><g fill="#ffffff" fill-opacity="1"><g transform="translate(425.296698, 117.471088)"><g><path d="M 1.375 -5.78125 L 1.375 -8.40625 L 11.640625 -8.40625 L 11.640625 -5.78125 Z M 1.375 -5.78125 "/></g></g></g><g fill="#ffffff" fill-opacity="1"><g transform="translate(438.211538, 117.471088)"><g><path d="M 1.59375 5.390625 L 1.59375 -12.15625 L 4.390625 -12.15625 L 4.734375 -10.40625 C 5.117188 -10.945312 5.632812 -11.421875 6.28125 -11.828125 C 6.925781 -12.242188 7.765625 -12.453125 8.796875 -12.453125 C 9.941406 -12.453125 10.960938 -12.171875 11.859375 -11.609375 C 12.753906 -11.054688 13.460938 -10.296875 13.984375 -9.328125 C 14.503906 -8.367188 14.765625 -7.273438 14.765625 -6.046875 C 14.765625 -4.828125 14.503906 -3.738281 13.984375 -2.78125 C 13.460938 -1.820312 12.753906 -1.066406 11.859375 -0.515625 C 10.960938 0.0234375 9.941406 0.296875 8.796875 0.296875 C 7.878906 0.296875 7.078125 0.125 6.390625 -0.21875 C 5.703125 -0.5625 5.148438 -1.046875 4.734375 -1.671875 L 4.734375 5.390625 Z M 8.140625 -2.453125 C 9.128906 -2.453125 9.953125 -2.785156 10.609375 -3.453125 C 11.265625 -4.117188 11.59375 -4.984375 11.59375 -6.046875 C 11.59375 -7.109375 11.265625 -7.984375 10.609375 -8.671875 C 9.953125 -9.359375 9.128906 -9.703125 8.140625 -9.703125 C 7.117188 -9.703125 6.285156 -9.363281 5.640625 -8.6875 C 4.992188 -8.007812 4.671875 -7.140625 4.671875 -6.078125 C 4.671875 -5.015625 4.992188 -4.144531 5.640625 -3.46875 C 6.285156 -2.789062 7.117188 -2.453125 8.140625 -2.453125 Z M 8.140625 -2.453125 "/></g></g></g><g fill="#ffffff" fill-opacity="1"><g transform="translate(454.189669, 117.471088)"><g><path d="M 1.59375 0 L 1.59375 -12.15625 L 4.390625 -12.15625 L 4.671875 -9.875 C 5.117188 -10.65625 5.722656 -11.28125 6.484375 -11.75 C 7.242188 -12.21875 8.132812 -12.453125 9.15625 -12.453125 L 9.15625 -9.140625 L 8.28125 -9.140625 C 7.59375 -9.140625 6.976562 -9.03125 6.4375 -8.8125 C 5.90625 -8.601562 5.488281 -8.238281 5.1875 -7.71875 C 4.882812 -7.195312 4.734375 -6.46875 4.734375 -5.53125 L 4.734375 0 Z M 1.59375 0 "/></g></g></g><g fill="#ffffff" fill-opacity="1"><g transform="translate(463.894178, 117.471088)"><g><path d="M 7.421875 0.296875 C 6.242188 0.296875 5.1875 0.0234375 4.25 -0.515625 C 3.3125 -1.054688 2.566406 -1.800781 2.015625 -2.75 C 1.472656 -3.707031 1.203125 -4.816406 1.203125 -6.078125 C 1.203125 -7.335938 1.476562 -8.441406 2.03125 -9.390625 C 2.582031 -10.347656 3.328125 -11.097656 4.265625 -11.640625 C 5.210938 -12.179688 6.273438 -12.453125 7.453125 -12.453125 C 8.609375 -12.453125 9.65625 -12.179688 10.59375 -11.640625 C 11.53125 -11.097656 12.269531 -10.347656 12.8125 -9.390625 C 13.363281 -8.441406 13.640625 -7.335938 13.640625 -6.078125 C 13.640625 -4.816406 13.363281 -3.707031 12.8125 -2.75 C 12.269531 -1.800781 11.523438 -1.054688 10.578125 -0.515625 C 9.628906 0.0234375 8.578125 0.296875 7.421875 0.296875 Z M 7.421875 -2.421875 C 8.242188 -2.421875 8.957031 -2.726562 9.5625 -3.34375 C 10.164062 -3.957031 10.46875 -4.867188 10.46875 -6.078125 C 10.46875 -7.285156 10.164062 -8.191406 9.5625 -8.796875 C 8.957031 -9.410156 8.253906 -9.71875 7.453125 -9.71875 C 6.617188 -9.71875 5.898438 -9.410156 5.296875 -8.796875 C 4.703125 -8.191406 4.40625 -7.285156 4.40625 -6.078125 C 4.40625 -4.867188 4.703125 -3.957031 5.296875 -3.34375 C 5.898438 -2.726562 6.609375 -2.421875 7.421875 -2.421875 Z M 7.421875 -2.421875 "/></g></g></g><g fill="#ffffff" fill-opacity="1"><g transform="translate(478.745018, 117.471088)"><g><path d="M 2.15625 0 L 2.15625 -9.53125 L 0.484375 -9.53125 L 0.484375 -12.15625 L 2.15625 -12.15625 L 2.15625 -13.578125 C 2.15625 -15.046875 2.523438 -16.085938 3.265625 -16.703125 C 4.015625 -17.328125 5.023438 -17.640625 6.296875 -17.640625 L 7.640625 -17.640625 L 7.640625 -14.96875 L 6.78125 -14.96875 C 6.25 -14.96875 5.867188 -14.859375 5.640625 -14.640625 C 5.410156 -14.429688 5.296875 -14.078125 5.296875 -13.578125 L 5.296875 -12.15625 L 7.90625 -12.15625 L 7.90625 -9.53125 L 5.296875 -9.53125 L 5.296875 0 Z M 2.15625 0 "/></g></g></g><g fill="#ffffff" fill-opacity="1"><g transform="translate(487.542791, 117.471088)"><g><path d="M 3.28125 -14.03125 C 2.707031 -14.03125 2.238281 -14.203125 1.875 -14.546875 C 1.507812 -14.890625 1.328125 -15.320312 1.328125 -15.84375 C 1.328125 -16.375 1.507812 -16.804688 1.875 -17.140625 C 2.238281 -17.472656 2.707031 -17.640625 3.28125 -17.640625 C 3.851562 -17.640625 4.320312 -17.472656 4.6875 -17.140625 C 5.0625 -16.804688 5.25 -16.375 5.25 -15.84375 C 5.25 -15.320312 5.0625 -14.890625 4.6875 -14.546875 C 4.320312 -14.203125 3.851562 -14.03125 3.28125 -14.03125 Z M 1.71875 0 L 1.71875 -12.15625 L 4.84375 -12.15625 L 4.84375 0 Z M 1.71875 0 "/></g></g></g><g fill="#ffffff" fill-opacity="1"><g transform="translate(494.085981, 117.471088)"><g><path d="M 7 0 C 5.726562 0 4.707031 -0.304688 3.9375 -0.921875 C 3.175781 -1.546875 2.796875 -2.648438 2.796875 -4.234375 L 2.796875 -9.53125 L 0.703125 -9.53125 L 0.703125 -12.15625 L 2.796875 -12.15625 L 3.15625 -15.40625 L 5.921875 -15.40625 L 5.921875 -12.15625 L 9.21875 -12.15625 L 9.21875 -9.53125 L 5.921875 -9.53125 L 5.921875 -4.21875 C 5.921875 -3.625 6.046875 -3.21875 6.296875 -3 C 6.554688 -2.78125 7 -2.671875 7.625 -2.671875 L 9.140625 -2.671875 L 9.140625 0 Z M 7 0 "/></g></g></g><g fill="#ffffff" fill-opacity="1"><g transform="translate(504.40315, 117.471088)"><g><path d="M 6.609375 0.296875 C 5.535156 0.296875 4.585938 0.117188 3.765625 -0.234375 C 2.953125 -0.585938 2.300781 -1.070312 1.8125 -1.6875 C 1.320312 -2.3125 1.03125 -3.03125 0.9375 -3.84375 L 4.09375 -3.84375 C 4.1875 -3.375 4.445312 -2.96875 4.875 -2.625 C 5.3125 -2.289062 5.875 -2.125 6.5625 -2.125 C 7.25 -2.125 7.75 -2.265625 8.0625 -2.546875 C 8.382812 -2.828125 8.546875 -3.144531 8.546875 -3.5 C 8.546875 -4.019531 8.316406 -4.375 7.859375 -4.5625 C 7.398438 -4.75 6.765625 -4.9375 5.953125 -5.125 C 5.429688 -5.238281 4.898438 -5.375 4.359375 -5.53125 C 3.816406 -5.695312 3.320312 -5.90625 2.875 -6.15625 C 2.425781 -6.414062 2.0625 -6.742188 1.78125 -7.140625 C 1.507812 -7.535156 1.375 -8.03125 1.375 -8.625 C 1.375 -9.695312 1.800781 -10.601562 2.65625 -11.34375 C 3.507812 -12.082031 4.710938 -12.453125 6.265625 -12.453125 C 7.703125 -12.453125 8.847656 -12.113281 9.703125 -11.4375 C 10.566406 -10.769531 11.082031 -9.847656 11.25 -8.671875 L 8.28125 -8.671875 C 8.101562 -9.566406 7.425781 -10.015625 6.25 -10.015625 C 5.65625 -10.015625 5.195312 -9.898438 4.875 -9.671875 C 4.5625 -9.441406 4.40625 -9.15625 4.40625 -8.8125 C 4.40625 -8.457031 4.640625 -8.171875 5.109375 -7.953125 C 5.585938 -7.742188 6.21875 -7.550781 7 -7.375 C 7.851562 -7.175781 8.632812 -6.957031 9.34375 -6.71875 C 10.050781 -6.488281 10.617188 -6.140625 11.046875 -5.671875 C 11.472656 -5.203125 11.6875 -4.535156 11.6875 -3.671875 C 11.707031 -2.921875 11.507812 -2.242188 11.09375 -1.640625 C 10.6875 -1.035156 10.097656 -0.5625 9.328125 -0.21875 C 8.566406 0.125 7.660156 0.296875 6.609375 0.296875 Z M 6.609375 0.296875 "/></g></g></g></svg>